HIERARCHY
ROOT Hips
{
	OFFSET 0.00000 0.00000 0.00000
	CHANNELS 6 Xposition Yposition Zposition Zrotation Yrotation Xrotation 
	JOINT LHipJoint
	{
		OFFSET 0 0 0
		CHANNELS 3 Zrotation Yrotation Xrotation
		JOINT LeftHip
		{
			OFFSET 1.59801 -1.77853 0.57028
			CHANNELS 3 Zrotation Yrotation Xrotation
			JOINT LeftKnee
			{
				OFFSET 2.39439 -6.57854 0.00000
				CHANNELS 3 Zrotation Yrotation Xrotation
				JOINT LeftAnkle
				{
					OFFSET 2.69334 -7.39989 0.00000
					CHANNELS 3 Zrotation Yrotation Xrotation
					JOINT LeftToe
					{
						OFFSET 0.09553 -0.26245 1.73747
						CHANNELS 3 Zrotation Yrotation Xrotation
						End Site
						{
							OFFSET 0.00000 -0.00000 0.89391
						}
					}
				}
			}
		}
	}
	JOINT RHipJoint
	{
		OFFSET 0 0 0
		CHANNELS 3 Zrotation Yrotation Xrotation
		JOINT RightHip
		{
			OFFSET -1.54704 -1.77852 0.57028
			CHANNELS 3 Zrotation Yrotation Xrotation
			JOINT RightKnee
			{
				OFFSET -2.40286 -6.60180 0.00000
				CHANNELS 3 Zrotation Yrotation Xrotation
				JOINT RightAnkle
				{
					OFFSET -2.63873 -7.24984 0.00000
					CHANNELS 3 Zrotation Yrotation Xrotation
					JOINT RightToe
					{
						OFFSET -0.15631 -0.42945 1.84436
						CHANNELS 3 Zrotation Yrotation Xrotation
						End Site
						{
							OFFSET -0.00000 -0.00000 0.95734
						}
					}
				}
			}
		}
	}
	JOINT lowerback
	{
		OFFSET 0 0 0
		CHANNELS 3 Zrotation Yrotation Xrotation
		JOINT Chest
		{
			OFFSET -0.00436 1.89866 -0.04018
			CHANNELS 3 Zrotation Yrotation Xrotation
			JOINT Chest2
			{
				OFFSET 0.02031 1.88273 0.09634
				CHANNELS 3 Zrotation Yrotation Xrotation
				JOINT lowerneck
				{
					OFFSET 0 0 0
					CHANNELS 3 Zrotation Yrotation Xrotation
					JOINT Neck
					{
						OFFSET -0.13105 1.89371 0.23083
						CHANNELS 3 Zrotation Yrotation Xrotation
						JOINT Head
						{
							OFFSET 0.17062 1.83990 -0.54062
							CHANNELS 3 Zrotation Yrotation Xrotation
							End Site
							{
								OFFSET 0.04576 1.94782 -0.21839
							}
						}
					}
				}
				JOINT LeftCollar
				{
					OFFSET 0 0 0
					CHANNELS 3 Zrotation Yrotation Xrotation
					JOINT LeftShoulder
					{
						OFFSET 3.12424 1.09204 0.22226
CHANNELS 3 Zrotation Xrotation Yrotation
						JOINT LeftElbow
						{
OFFSET 0 -5.292770 0.000000
CHANNELS 3 Zrotation Xrotation Yrotation
							JOINT LeftWrist
							{
OFFSET 0 -2.852260 0.000000
CHANNELS 3 Zrotation Xrotation Yrotation
								JOINT lhand
								{
									OFFSET 0 0 0
CHANNELS 3 Zrotation Xrotation Yrotation
									JOINT LFingers
									{
OFFSET 0 -0.602100 0.000000
CHANNELS 3 Zrotation Xrotation Yrotation
										End Site
										{
OFFSET 0 -0.485430 0.000000
										}
									}
								}
								JOINT LThumb
								{
OFFSET 0 0.000000 0.000000
CHANNELS 3 Zrotation Xrotation Yrotation
									End Site
									{
OFFSET 0 -0.492840 0.492840
									}
								}
							}
						}
					}
				}
				JOINT RightCollar
				{
					OFFSET 0 0 0
					CHANNELS 3 Zrotation Yrotation Xrotation
					JOINT RightShoulder
					{
						OFFSET -2.91709 1.01504 0.30199
CHANNELS 3 Zrotation Xrotation Yrotation
						JOINT RightElbow
						{
OFFSET 0 -5.133040 0.000000
CHANNELS 3 Zrotation Xrotation Yrotation
							JOINT RightWrist
							{
OFFSET 0 -2.743050 0.000000
CHANNELS 3 Zrotation Xrotation Yrotation
								JOINT rhand
								{
									OFFSET 0 0 0
CHANNELS 3 Zrotation Xrotation Yrotation
									JOINT RFingers
									{
OFFSET 0 -0.767980 0.000000
CHANNELS 3 Zrotation Xrotation Yrotation
										End Site
										{
OFFSET 0 -0.619160 0.000000
										}
									}
								}
								JOINT RThumb
								{
OFFSET 0 0.000000 0.000000
CHANNELS 3 Zrotation Xrotation Yrotation
									End Site
									{
OFFSET 0 -0.628620 0.628620
									}
								}
							}
						}
					}
				}
			}
		}
	}
}
MOTION
Frames: 12
Frame Time: 0.008333333333333333
-0.036000 17.397800 0.134000 0.667700 1.901100 1.253600 0.000000 0.000000 0.000000 -21.749200 -17.283200 10.067300 0.237100 3.133600 8.650800 0.350800 7.062700 -15.954300 1.284300 -7.181400 -20.253800 0.000000 0.000000 0.000000 19.510000 6.773900 12.179500 0.000000 0.000000 -0.000000 0.109800 -9.722700 -11.797800 -0.598600 4.952900 -13.774200 -3.530000 0.247900 -2.536200 0.935900 0.388800 -2.746100 2.946600 0.265200 -1.430500 -17.199000 -12.045400 -10.391900 14.778000 -18.834200 30.160800 5.614600 -8.560600 15.588700 0.000000 -0.000000 0.000000 -2.623700 1.862200 -25.385500 7.710200 -13.082100 0.885400 8.240000 30.340600 -23.249600 0.000000 0.000000 0.000000 -7.125000 0.000000 0.000000 -21.256700 52.176100 3.899800 0.000000 -0.000000 0.000000 -90.000000 0.000000 -0.000000 0.000000 0.000000 -0.000000 0.000000 0.000000 -0.000000 0.000000 0.000000 0.000000 0.000000 -0.000000 0.000000 0.000000 0.000000 0.000000
-0.037056 17.400061 0.134022 0.682802 1.917605 1.340828 0.000000 0.000000 0.000000 -21.716229 -17.339754 9.968053 0.238116 3.140620 8.670511 0.362751 6.929905 -15.986602 1.101376 -6.668045 -18.735679 0.000000 0.000000 0.000000 19.489699 6.788212 12.086984 0.000000 0.000000 0.000000 0.101167 -9.659539 -11.872413 -0.551210 4.755289 -13.211981 -3.583596 0.225057 -2.590989 0.962322 0.360735 -2.788161 3.003820 0.253317 -1.441767 -17.288489 -12.014997 -10.362879 14.865311 -18.794753 30.116655 5.676529 -8.547212 15.577085 0.000000 0.000000 0.000000 -2.507557 1.853245 -25.278769 7.720931 -13.099482 0.887845 8.867512 30.164281 -22.429093 0.000000 0.000000 0.000000 -7.125000 0.000000 0.000000 -20.237325 51.513232 3.362414 0.000000 0.000000 0.000000 -90.000000 0.000000 0.000000 0.000000 0.000000 0.000000 0.000000 0.000000 0.000000 0.000000 0.000000 0.000000 0.000000 0.000000 0.000000 0.000000 0.000000 0.000000
-0.033058 17.402653 0.137376 0.678227 2.017876 1.687051 0.000000 0.000000 0.000000 -21.615059 -17.593135 9.575371 0.243933 3.178129 8.775145 0.358505 6.950654 -15.949748 1.105683 -6.680008 -18.771082 0.000000 0.000000 0.000000 19.441595 6.814324 11.713788 0.000000 0.000000 0.000000 0.093978 -9.591293 -11.908821 -0.525035 4.643685 -12.895064 -3.503859 0.183753 -2.943613 0.949196 0.314848 -2.900077 2.945574 0.228992 -1.355733 -17.304334 -12.010957 -10.337154 14.870247 -18.780724 30.064617 5.683123 -8.544456 15.545606 0.000000 0.000000 0.000000 -2.405466 1.777325 -25.040741 7.671125 -13.018427 0.876556 9.216896 30.415190 -22.230638 0.000000 0.000000 0.000000 -7.125000 0.000000 0.000000 -19.807168 51.383938 3.221119 0.000000 0.000000 0.000000 -90.000000 0.000000 0.000000 0.000000 0.000000 0.000000 0.000000 0.000000 0.000000 0.000000 0.000000 0.000000 0.000000 0.000000 0.000000 0.000000 0.000000 0.000000
-0.022800 17.414933 0.144950 0.641057 2.445033 2.859505 0.000000 0.000000 0.000000 -21.215022 -18.504723 8.359410 0.250415 3.220108 8.892093 0.353512 7.041669 -15.970175 1.181581 -6.898844 -19.416015 0.000000 0.000000 0.000000 19.326264 6.816996 10.421262 0.000000 0.000000 0.000000 0.093267 -9.572334 -11.892376 -0.552405 4.760768 -13.227662 -3.237756 0.010300 -4.089371 0.883112 0.113067 -3.267654 2.727416 0.123133 -1.076284 -17.274026 -12.008099 -10.292485 14.857301 -18.780931 30.034768 5.673269 -8.545633 15.514819 0.000000 0.000000 0.000000 -2.287774 1.770849 -24.763072 7.622079 -12.938486 0.865519 9.251977 30.796862 -22.412031 0.000000 0.000000 0.000000 -7.125000 0.000000 0.000000 -19.863846 51.560567 3.319355 0.000000 0.000000 0.000000 -15.277541 2.787319 13.364536 -9.229667 -15.336294 -1.500249 -9.241163 22.784140 -10.987580 0.000000 0.000000 0.000000 5.935518 0.000000 0.000000 9.307558 13.917602 6.362125
-0.021323 17.416100 0.146177 0.651311 2.420769 2.878230 0.000000 0.000000 0.000000 -21.229510 -18.498892 8.305713 0.254722 3.247090 8.967391 0.406495 6.782246 -16.410684 1.019976 -6.424919 -18.022510 0.000000 0.000000 0.000000 19.302215 6.842531 10.421742 0.000000 0.000000 0.000000 0.087922 -9.524719 -11.924688 -0.548448 4.743575 -13.178736 -3.195345 0.000870 -4.107239 0.846296 0.099527 -3.275408 2.665186 0.115280 -1.072922 -17.226350 -12.005982 -10.369965 14.849652 -18.773857 30.029023 5.659412 -8.534027 15.520645 0.000000 0.000000 0.000000 -2.149082 1.694794 -24.778196 7.511702 -12.758317 0.841005 9.332101 30.797935 -22.586785 0.000000 0.000000 0.000000 -7.125000 0.000000 0.000000 -19.874797 51.738442 3.410115 0.000000 0.000000 0.000000 -0.252409 3.290429 16.086312 -11.020508 -18.319629 -1.782350 -11.297469 27.518970 -13.143546 0.000000 0.000000 0.000000 7.125000 0.000000 0.000000 11.033991 16.739813 7.530533
-0.019967 17.416111 0.148255 0.650992 2.350344 2.926621 0.000000 0.000000 0.000000 -21.224297 -18.457513 8.213164 0.258124 3.268450 9.027004 0.384138 6.959213 -16.287967 1.204140 -6.961957 -19.602749 0.000000 0.000000 0.000000 19.290789 6.927510 10.392836 0.000000 0.000000 0.000000 0.091125 -9.540081 -11.883680 -0.534577 4.684729 -13.011453 -3.187067 0.005907 -4.152833 0.853172 0.106991 -3.325585 2.667897 0.120107 -1.099725 -17.258896 -11.982872 -10.391115 14.832049 -18.724640 30.048592 5.668233 -8.517572 15.525265 0.000000 0.000000 0.000000 -2.041640 1.733165 -24.798997 7.480671 -12.707562 0.834171 10.193310 31.135029 -22.328139 0.000000 0.000000 0.000000 -7.125000 0.000000 0.000000 -18.926239 51.636506 3.188782 0.000000 0.000000 0.000000 -0.270055 3.291442 16.183529 -10.931355 -18.182894 -1.754414 -11.401961 27.614817 -13.067830 0.000000 0.000000 0.000000 7.125000 0.000000 0.000000 10.964576 16.808937 7.464403
-0.018801 17.416633 0.149733 0.560043 2.330041 2.999779 0.000000 0.000000 0.000000 -21.118214 -18.503886 8.013401 0.271195 3.349803 9.254316 0.404951 6.914405 -16.509205 1.170411 -6.866159 -19.319804 0.000000 0.000000 0.000000 19.373060 6.994008 10.280375 0.000000 0.000000 0.000000 0.078705 -9.454903 -11.998490 -0.623699 5.052294 -14.058037 -3.052421 0.006330 -4.219515 0.860760 0.105297 -3.371654 2.600090 0.117733 -1.109163 -17.309693 -11.993825 -10.478367 14.837506 -18.732891 30.120473 5.675804 -8.520963 15.589644 0.000000 0.000000 0.000000 -1.900916 1.756711 -24.842078 7.473317 -12.695561 0.832570 10.581946 31.336076 -22.159237 0.000000 0.000000 0.000000 -7.125000 0.000000 0.000000 -18.473738 51.540198 3.063421 0.000000 0.000000 0.000000 -0.243879 3.327275 16.386609 -10.929517 -18.180175 -1.753862 -10.632273 27.413301 -12.615632 0.000000 0.000000 0.000000 7.125000 0.000000 0.000000 11.506892 17.305116 7.720428
-0.017711 17.415717 0.150617 0.354605 2.303867 3.043173 0.000000 0.000000 0.000000 -20.894797 -18.537605 7.812621 0.287666 3.449205 9.532021 0.401402 6.936082 -16.484583 1.253711 -7.097357 -20.004522 0.000000 0.000000 0.000000 19.592335 7.060654 10.200982 0.000000 0.000000 0.000000 0.074982 -9.441075 -12.052128 -0.645648 5.140180 -14.308701 -2.800754 0.030203 -4.268237 0.899161 0.131030 -3.387856 2.499029 0.126599 -1.098935 -17.262615 -12.026051 -10.595469 14.759425 -18.755072 30.165074 5.624087 -8.525748 15.625141 0.000000 0.000000 0.000000 -1.771101 1.710706 -24.931716 7.391468 -12.561656 0.814730 10.505021 31.134824 -22.223381 0.000000 0.000000 0.000000 -7.125000 0.000000 0.000000 -18.578049 51.588588 3.104227 0.000000 0.000000 0.000000 -0.206396 3.361732 16.557436 -10.985032 -18.265250 -1.771198 -10.163958 27.197102 -12.359667 0.000000 0.000000 0.000000 7.125000 0.000000 0.000000 11.837921 17.585797 7.878714
-0.018000 17.416655 0.151288 0.234288 2.294109 3.111734 0.000000 0.000000 0.000000 -20.736085 -18.586064 7.631381 0.298807 3.514744 9.715147 0.393106 7.016167 -16.452811 1.293252 -7.205256 -20.324912 0.000000 0.000000 0.000000 19.724462 7.096015 10.145799 0.000000 0.000000 0.000000 0.080497 -9.479492 -12.002326 -0.652475 5.166723 -14.384643 -2.695970 0.029070 -4.300252 0.936307 0.127040 -3.436503 2.478211 0.124170 -1.130555 -17.239078 -12.040558 -10.630255 14.703119 -18.753806 30.146542 5.592524 -8.526634 15.611976 0.000000 0.000000 0.000000 -1.690251 1.661966 -24.982023 7.202379 -12.251796 0.774039 10.915907 30.643135 -21.834322 0.000000 0.000000 0.000000 -7.125000 0.000000 0.000000 -18.002139 51.284877 2.866040 0.000000 0.000000 0.000000 -0.178633 3.381202 16.504711 -10.991513 -18.275324 -1.773267 -10.249356 27.347439 -12.398133 0.000000 0.000000 0.000000 7.125000 0.000000 0.000000 11.777671 17.543035 7.848130
-0.016801 17.418899 0.153200 0.208572 2.271112 3.166224 0.000000 0.000000 0.000000 -20.693926 -18.585651 7.559779 0.300150 3.522599 9.737149 0.405639 6.923842 -16.526448 1.270640 -7.144108 -20.143122 0.000000 0.000000 0.000000 19.747186 7.121485 10.145261 0.000000 0.000000 0.000000 0.089895 -9.516325 -11.870158 -0.618601 5.033404 -14.003961 -2.669494 0.020798 -4.310412 0.949467 0.115147 -3.498415 2.476564 0.119598 -1.187857 -17.281229 -12.018760 -10.595125 14.738264 -18.723556 30.114471 5.622329 -8.517602 15.592409 0.000000 0.000000 0.000000 -1.586571 1.778513 -25.005718 7.233776 -12.303379 0.780734 11.256396 30.466151 -21.505167 0.000000 0.000000 0.000000 -7.125000 0.000000 0.000000 -17.525803 51.024854 2.671668 0.000000 0.000000 0.000000 -0.193701 3.461097 16.572030 -11.026479 -18.328867 -1.784243 -10.248989 27.369358 -12.477127 0.000000 0.000000 0.000000 7.125000 0.000000 0.000000 11.774929 17.464679 7.866934
-0.016835 17.420011 0.152822 0.221926 2.237497 3.225648 0.000000 0.000000 0.000000 -20.680926 -18.573618 7.495258 0.299290 3.517594 9.723303 0.417025 6.797507 -16.555413 1.191374 -6.926097 -19.496769 0.000000 0.000000 0.000000 19.726734 7.175302 10.092482 0.000000 0.000000 0.000000 0.093365 -9.524924 -11.812419 -0.625893 5.062193 -14.086003 -2.675763 0.031881 -4.239824 0.939593 0.127493 -3.609297 2.470015 0.129472 -1.342321 -17.339785 -12.004759 -10.489002 14.811920 -18.726516 30.072165 5.667293 -8.524726 15.567225 0.000000 0.000000 0.000000 -1.497671 1.943688 -25.074277 7.332538 -12.465139 0.801841 10.459394 30.589263 -22.233169 0.000000 0.000000 0.000000 -7.125000 0.000000 0.000000 -18.626463 51.590341 3.113915 0.000000 0.000000 0.000000 -0.177203 3.611016 16.568435 -11.055298 -18.373029 -1.793315 -10.459446 27.359641 -12.666559 0.000000 0.000000 0.000000 7.125000 0.000000 0.000000 11.623453 17.264719 7.813424
-0.014490 17.420316 0.153793 0.187449 2.244811 3.246426 0.000000 0.000000 0.000000 -20.648036 -18.589844 7.466392 0.299915 3.521354 9.733760 0.412846 6.821072 -16.524196 1.219029 -7.003059 -19.724528 0.000000 0.000000 0.000000 19.756058 7.174854 10.077626 0.000000 0.000000 0.000000 0.094772 -9.542048 -11.811112 -0.549047 4.745535 -13.184537 -2.614284 0.038495 -4.130659 0.936438 0.131232 -3.711639 2.432017 0.133818 -1.508793 -17.321077 -11.997492 -10.421089 14.804125 -18.719102 30.019253 5.663374 -8.524916 15.520482 0.000000 0.000000 0.000000 -1.484962 2.067244 -25.154452 7.368689 -12.524338 0.809655 10.235022 30.664704 -22.494115 0.000000 0.000000 0.000000 -7.125000 0.000000 0.000000 -18.967499 51.800921 3.274342 0.000000 0.000000 0.000000 -0.172564 3.754759 16.701434 -11.099543 -18.440677 -1.807263 -10.372738 27.291077 -12.522290 0.000000 0.000000 0.000000 7.125000 0.000000 0.000000 11.688179 17.412993 7.819956
